<mxfile host="app.diagrams.net" agent="Mozilla/5.0 (X11; Linux x86_64) AppleWebKit/537.36 (KHTML, like Gecko) Chrome/139.0.0.0 Safari/537.36" version="28.1.1">
  <diagram name="Page-1" id="NqzVmkWYA9Un-F-A4Mzx">
    <mxGraphModel dx="2495" dy="1400" grid="1" gridSize="10" guides="1" tooltips="1" connect="1" arrows="1" fold="1" page="1" pageScale="1" pageWidth="3300" pageHeight="4681" math="0" shadow="0">
      <root>
        <mxCell id="0" />
        <mxCell id="1" parent="0" />
        <mxCell id="06KPtgeZnoNECOeJjDOf-44" value="" style="rounded=0;whiteSpace=wrap;html=1;" vertex="1" parent="1">
          <mxGeometry x="290" y="266" width="1530" height="894" as="geometry" />
        </mxCell>
        <mxCell id="06KPtgeZnoNECOeJjDOf-45" value="" style="rounded=0;whiteSpace=wrap;html=1;" vertex="1" parent="1">
          <mxGeometry x="290" y="266" width="635" height="394" as="geometry" />
        </mxCell>
        <mxCell id="06KPtgeZnoNECOeJjDOf-26" value="" style="ellipse;whiteSpace=wrap;html=1;fillColor=#eeeeee;strokeColor=#36393d;fillStyle=solid;" vertex="1" parent="1">
          <mxGeometry x="1429" y="366" width="95" height="70" as="geometry" />
        </mxCell>
        <mxCell id="schMxlsDzBp6fQwOlisN-5" value="" style="endArrow=none;html=1;rounded=0;" parent="1" edge="1">
          <mxGeometry width="50" height="50" relative="1" as="geometry">
            <mxPoint x="1300" y="481" as="sourcePoint" />
            <mxPoint x="1780" y="481" as="targetPoint" />
          </mxGeometry>
        </mxCell>
        <mxCell id="schMxlsDzBp6fQwOlisN-6" value="Promoter" style="rounded=0;whiteSpace=wrap;html=1;fontSize=20;fillColor=#66CC00;" parent="1" vertex="1">
          <mxGeometry x="1420" y="450" width="120" height="60" as="geometry" />
        </mxCell>
        <mxCell id="schMxlsDzBp6fQwOlisN-8" value="&lt;font style=&quot;font-size: 20px;&quot;&gt;Gene&lt;/font&gt;" style="rounded=1;whiteSpace=wrap;html=1;fillColor=#FFE599;glass=0;strokeWidth=3;" parent="1" vertex="1">
          <mxGeometry x="1620" y="450" width="120" height="60" as="geometry" />
        </mxCell>
        <mxCell id="schMxlsDzBp6fQwOlisN-10" value="" style="endArrow=classic;html=1;rounded=0;strokeWidth=1;" parent="1" edge="1">
          <mxGeometry width="50" height="50" relative="1" as="geometry">
            <mxPoint x="1580" y="510" as="sourcePoint" />
            <mxPoint x="1740" y="550" as="targetPoint" />
            <Array as="points">
              <mxPoint x="1580" y="550" />
            </Array>
          </mxGeometry>
        </mxCell>
        <mxCell id="schMxlsDzBp6fQwOlisN-23" value="Initiates transcription" style="text;html=1;align=center;verticalAlign=middle;whiteSpace=wrap;rounded=0;fontSize=20;" parent="1" vertex="1">
          <mxGeometry x="1550" y="560" width="250" height="30" as="geometry" />
        </mxCell>
        <mxCell id="schMxlsDzBp6fQwOlisN-24" value="" style="endArrow=none;html=1;rounded=0;" parent="1" edge="1">
          <mxGeometry width="50" height="50" relative="1" as="geometry">
            <mxPoint x="480" y="1050" as="sourcePoint" />
            <mxPoint x="920" y="1051" as="targetPoint" />
          </mxGeometry>
        </mxCell>
        <mxCell id="schMxlsDzBp6fQwOlisN-25" value="Promoter" style="rounded=0;whiteSpace=wrap;html=1;fontSize=20;fillColor=#66CC00;" parent="1" vertex="1">
          <mxGeometry x="560" y="1020" width="120" height="60" as="geometry" />
        </mxCell>
        <mxCell id="schMxlsDzBp6fQwOlisN-27" value="Gene" style="rounded=1;whiteSpace=wrap;html=1;fontSize=20;fillColor=#FFE599;glass=0;strokeWidth=3;" parent="1" vertex="1">
          <mxGeometry x="760" y="1020" width="120" height="60" as="geometry" />
        </mxCell>
        <mxCell id="schMxlsDzBp6fQwOlisN-36" value="" style="endArrow=none;html=1;rounded=0;" parent="1" edge="1">
          <mxGeometry width="50" height="50" relative="1" as="geometry">
            <mxPoint x="480" y="761" as="sourcePoint" />
            <mxPoint x="920" y="761" as="targetPoint" />
          </mxGeometry>
        </mxCell>
        <mxCell id="schMxlsDzBp6fQwOlisN-37" value="" style="endArrow=none;html=1;rounded=1;curved=0;" parent="1" edge="1">
          <mxGeometry width="50" height="50" relative="1" as="geometry">
            <mxPoint x="480" y="1050" as="sourcePoint" />
            <mxPoint x="480" y="761" as="targetPoint" />
            <Array as="points">
              <mxPoint x="380" y="1001" />
              <mxPoint x="350" y="911" />
              <mxPoint x="400" y="801" />
            </Array>
          </mxGeometry>
        </mxCell>
        <mxCell id="schMxlsDzBp6fQwOlisN-49" value="" style="endArrow=classic;html=1;rounded=0;strokeWidth=1;" parent="1" edge="1">
          <mxGeometry width="50" height="50" relative="1" as="geometry">
            <mxPoint x="720" y="1080" as="sourcePoint" />
            <mxPoint x="880" y="1120" as="targetPoint" />
            <Array as="points">
              <mxPoint x="720" y="1120" />
            </Array>
          </mxGeometry>
        </mxCell>
        <mxCell id="schMxlsDzBp6fQwOlisN-51" value="Increases&amp;nbsp;&lt;span&gt;&lt;b&gt;&lt;font style=&quot;color: rgb(102, 204, 0);&quot;&gt;+&lt;/font&gt;&lt;/b&gt;&lt;font style=&quot;color: rgb(102, 204, 0);&quot;&gt;&amp;nbsp;&lt;/font&gt;&lt;/span&gt;/ reduces &lt;font style=&quot;color: rgb(255, 51, 51);&quot;&gt;&lt;b&gt;-&lt;/b&gt;&lt;/font&gt;&lt;br&gt;&amp;nbsp;transcription" style="text;html=1;align=center;verticalAlign=middle;whiteSpace=wrap;rounded=0;fontSize=20;" parent="1" vertex="1">
          <mxGeometry x="690" y="880" width="250" height="30" as="geometry" />
        </mxCell>
        <mxCell id="schMxlsDzBp6fQwOlisN-67" value="Blocks other CREs" style="text;html=1;align=center;verticalAlign=middle;whiteSpace=wrap;rounded=0;fontSize=20;" parent="1" vertex="1">
          <mxGeometry x="1367.5" y="886" width="250" height="30" as="geometry" />
        </mxCell>
        <mxCell id="schMxlsDzBp6fQwOlisN-68" value="" style="endArrow=none;html=1;rounded=0;" parent="1" edge="1">
          <mxGeometry width="50" height="50" relative="1" as="geometry">
            <mxPoint x="1240" y="1050" as="sourcePoint" />
            <mxPoint x="1780" y="1051" as="targetPoint" />
          </mxGeometry>
        </mxCell>
        <mxCell id="schMxlsDzBp6fQwOlisN-69" value="Promoter" style="rounded=0;whiteSpace=wrap;html=1;fontSize=20;fillColor=#66CC00;" parent="1" vertex="1">
          <mxGeometry x="1420" y="1020" width="120" height="60" as="geometry" />
        </mxCell>
        <mxCell id="schMxlsDzBp6fQwOlisN-70" value="Gene" style="rounded=1;whiteSpace=wrap;html=1;fontSize=20;fillColor=#FFE599;glass=0;strokeWidth=3;" parent="1" vertex="1">
          <mxGeometry x="1620" y="1020" width="120" height="60" as="geometry" />
        </mxCell>
        <mxCell id="schMxlsDzBp6fQwOlisN-71" value="" style="ellipse;whiteSpace=wrap;html=1;fillColor=#eeeeee;strokeColor=#36393d;fillStyle=solid;" parent="1" vertex="1">
          <mxGeometry x="1285" y="940" width="95" height="70" as="geometry" />
        </mxCell>
        <mxCell id="schMxlsDzBp6fQwOlisN-72" value="" style="ellipse;whiteSpace=wrap;html=1;fillColor=#A3A3A3;" parent="1" vertex="1">
          <mxGeometry x="1290" y="970" width="40" height="40" as="geometry" />
        </mxCell>
        <mxCell id="schMxlsDzBp6fQwOlisN-73" value="" style="ellipse;whiteSpace=wrap;html=1;fillColor=#D6D6D6;" parent="1" vertex="1">
          <mxGeometry x="1350" y="930" width="30" height="50" as="geometry" />
        </mxCell>
        <mxCell id="schMxlsDzBp6fQwOlisN-74" value="" style="endArrow=none;html=1;rounded=0;dashed=1;dashPattern=8 8;" parent="1" edge="1">
          <mxGeometry width="50" height="50" relative="1" as="geometry">
            <mxPoint x="1240" y="760" as="sourcePoint" />
            <mxPoint x="1780" y="761" as="targetPoint" />
          </mxGeometry>
        </mxCell>
        <mxCell id="schMxlsDzBp6fQwOlisN-76" value="Insulator" style="rounded=0;whiteSpace=wrap;html=1;fontSize=20;dashed=1;dashPattern=8 8;fillColor=#CCE5FF;" parent="1" vertex="1">
          <mxGeometry x="1270" y="730" width="120" height="60" as="geometry" />
        </mxCell>
        <mxCell id="schMxlsDzBp6fQwOlisN-77" value="" style="ellipse;whiteSpace=wrap;html=1;fillColor=#eeeeee;strokeColor=#36393d;" parent="1" vertex="1">
          <mxGeometry x="1285" y="810" width="95" height="70" as="geometry" />
        </mxCell>
        <mxCell id="schMxlsDzBp6fQwOlisN-78" value="" style="ellipse;whiteSpace=wrap;html=1;fillColor=#A3A3A3;" parent="1" vertex="1">
          <mxGeometry x="1290" y="840" width="40" height="40" as="geometry" />
        </mxCell>
        <mxCell id="schMxlsDzBp6fQwOlisN-81" value="" style="ellipse;whiteSpace=wrap;html=1;fillColor=#D6D6D6;" parent="1" vertex="1">
          <mxGeometry x="1360" y="810" width="30" height="50" as="geometry" />
        </mxCell>
        <mxCell id="schMxlsDzBp6fQwOlisN-82" value="" style="endArrow=classic;html=1;rounded=0;strokeWidth=1;" parent="1" edge="1">
          <mxGeometry width="50" height="50" relative="1" as="geometry">
            <mxPoint x="1580" y="1080" as="sourcePoint" />
            <mxPoint x="1740" y="1120" as="targetPoint" />
            <Array as="points">
              <mxPoint x="1580" y="1120" />
            </Array>
          </mxGeometry>
        </mxCell>
        <mxCell id="schMxlsDzBp6fQwOlisN-86" value="" style="endArrow=none;html=1;rounded=0;dashed=1;dashPattern=8 8;" parent="1" edge="1">
          <mxGeometry width="50" height="50" relative="1" as="geometry">
            <mxPoint x="1180" y="900" as="sourcePoint" />
            <mxPoint x="1240" y="760" as="targetPoint" />
          </mxGeometry>
        </mxCell>
        <mxCell id="schMxlsDzBp6fQwOlisN-87" value="" style="endArrow=none;html=1;rounded=0;" parent="1" edge="1">
          <mxGeometry width="50" height="50" relative="1" as="geometry">
            <mxPoint x="1240" y="1050" as="sourcePoint" />
            <mxPoint x="1180" y="950" as="targetPoint" />
          </mxGeometry>
        </mxCell>
        <mxCell id="schMxlsDzBp6fQwOlisN-88" value="Insulator" style="rounded=0;whiteSpace=wrap;html=1;fontSize=20;fillColor=#CCE5FF;" parent="1" vertex="1">
          <mxGeometry x="1270" y="1020" width="120" height="60" as="geometry" />
        </mxCell>
        <mxCell id="schMxlsDzBp6fQwOlisN-89" value="" style="endArrow=none;html=1;rounded=0;dashed=1;dashPattern=8 8;" parent="1" edge="1">
          <mxGeometry width="50" height="50" relative="1" as="geometry">
            <mxPoint x="1020" y="900" as="sourcePoint" />
            <mxPoint x="1180" y="900" as="targetPoint" />
          </mxGeometry>
        </mxCell>
        <mxCell id="schMxlsDzBp6fQwOlisN-91" value="" style="endArrow=none;html=1;rounded=0;" parent="1" edge="1">
          <mxGeometry width="50" height="50" relative="1" as="geometry">
            <mxPoint x="1160" y="950" as="sourcePoint" />
            <mxPoint x="1180" y="950" as="targetPoint" />
          </mxGeometry>
        </mxCell>
        <mxCell id="06KPtgeZnoNECOeJjDOf-2" value="" style="endArrow=none;html=1;rounded=1;exitX=1;exitY=0;exitDx=0;exitDy=0;entryX=1;entryY=1;entryDx=0;entryDy=0;curved=0;startArrow=classicThin;startFill=1;dashed=1;" edge="1" parent="1" source="schMxlsDzBp6fQwOlisN-25" target="schMxlsDzBp6fQwOlisN-38">
          <mxGeometry width="50" height="50" relative="1" as="geometry">
            <mxPoint x="570" y="890" as="sourcePoint" />
            <mxPoint x="620" y="840" as="targetPoint" />
            <Array as="points">
              <mxPoint x="700" y="890" />
            </Array>
          </mxGeometry>
        </mxCell>
        <mxCell id="06KPtgeZnoNECOeJjDOf-6" value="" style="endArrow=classic;html=1;rounded=0;exitX=1;exitY=0;exitDx=0;exitDy=0;dashed=1;" edge="1" parent="1">
          <mxGeometry width="50" height="50" relative="1" as="geometry">
            <mxPoint x="1160" y="921" as="sourcePoint" />
            <mxPoint x="1230" y="920" as="targetPoint" />
          </mxGeometry>
        </mxCell>
        <mxCell id="06KPtgeZnoNECOeJjDOf-10" value="" style="verticalLabelPosition=bottom;verticalAlign=top;html=1;shape=mxgraph.basic.x;fillColor=#FF3333;strokeColor=none;" vertex="1" parent="1">
          <mxGeometry x="1240" y="900" width="35" height="35" as="geometry" />
        </mxCell>
        <mxCell id="06KPtgeZnoNECOeJjDOf-11" value="" style="verticalLabelPosition=bottom;verticalAlign=top;html=1;shape=mxgraph.basic.tick;strokeColor=none;fillColor=#66FF66;" vertex="1" parent="1">
          <mxGeometry x="1510" y="525" width="50" height="35" as="geometry" />
        </mxCell>
        <mxCell id="schMxlsDzBp6fQwOlisN-38" value="Enhancer/&lt;br&gt;Silencer" style="rounded=0;whiteSpace=wrap;html=1;fontSize=20;fillStyle=solid;gradientColor=#FF9999;gradientDirection=south;fillColor=#B6FA8E;" parent="1" vertex="1">
          <mxGeometry x="560" y="730" width="120" height="60" as="geometry" />
        </mxCell>
        <mxCell id="06KPtgeZnoNECOeJjDOf-16" value="" style="endArrow=none;html=1;rounded=0;" edge="1" parent="1">
          <mxGeometry width="50" height="50" relative="1" as="geometry">
            <mxPoint x="1020" y="950" as="sourcePoint" />
            <mxPoint x="1040" y="950" as="targetPoint" />
          </mxGeometry>
        </mxCell>
        <mxCell id="06KPtgeZnoNECOeJjDOf-17" value="" style="ellipse;whiteSpace=wrap;html=1;fillColor=#eeeeee;strokeColor=#36393d;fillStyle=solid;" vertex="1" parent="1">
          <mxGeometry x="569" y="937" width="95" height="70" as="geometry" />
        </mxCell>
        <mxCell id="06KPtgeZnoNECOeJjDOf-18" value="" style="ellipse;whiteSpace=wrap;html=1;fillColor=#A3A3A3;" vertex="1" parent="1">
          <mxGeometry x="574" y="967" width="40" height="40" as="geometry" />
        </mxCell>
        <mxCell id="06KPtgeZnoNECOeJjDOf-19" value="" style="ellipse;whiteSpace=wrap;html=1;fillColor=#D6D6D6;" vertex="1" parent="1">
          <mxGeometry x="634" y="927" width="30" height="50" as="geometry" />
        </mxCell>
        <mxCell id="06KPtgeZnoNECOeJjDOf-20" value="" style="ellipse;whiteSpace=wrap;html=1;fillColor=#eeeeee;strokeColor=#36393d;" vertex="1" parent="1">
          <mxGeometry x="569" y="807" width="95" height="70" as="geometry" />
        </mxCell>
        <mxCell id="06KPtgeZnoNECOeJjDOf-21" value="" style="ellipse;whiteSpace=wrap;html=1;fillColor=#A3A3A3;" vertex="1" parent="1">
          <mxGeometry x="574" y="837" width="40" height="40" as="geometry" />
        </mxCell>
        <mxCell id="06KPtgeZnoNECOeJjDOf-22" value="" style="ellipse;whiteSpace=wrap;html=1;fillColor=#BFCFBE;" vertex="1" parent="1">
          <mxGeometry x="614" y="892" width="50" height="40" as="geometry" />
        </mxCell>
        <mxCell id="06KPtgeZnoNECOeJjDOf-23" value="" style="ellipse;whiteSpace=wrap;html=1;fillColor=#DAEDD9;strokeColor=#36393d;" vertex="1" parent="1">
          <mxGeometry x="574" y="867" width="60" height="70" as="geometry" />
        </mxCell>
        <mxCell id="06KPtgeZnoNECOeJjDOf-24" value="" style="ellipse;whiteSpace=wrap;html=1;fillColor=#D6D6D6;" vertex="1" parent="1">
          <mxGeometry x="644" y="807" width="30" height="50" as="geometry" />
        </mxCell>
        <mxCell id="06KPtgeZnoNECOeJjDOf-25" value="" style="ellipse;whiteSpace=wrap;html=1;fillColor=#A3A3A3;" vertex="1" parent="1">
          <mxGeometry x="1434" y="396" width="40" height="40" as="geometry" />
        </mxCell>
        <mxCell id="06KPtgeZnoNECOeJjDOf-27" value="" style="ellipse;whiteSpace=wrap;html=1;fillColor=#D6D6D6;" vertex="1" parent="1">
          <mxGeometry x="1494" y="356" width="30" height="50" as="geometry" />
        </mxCell>
        <mxCell id="06KPtgeZnoNECOeJjDOf-28" value="Enhancer/&lt;br&gt;Silencer" style="rounded=0;whiteSpace=wrap;html=1;fontSize=20;fillStyle=solid;gradientColor=#FF9999;gradientDirection=south;fillColor=#B6FA8E;" vertex="1" parent="1">
          <mxGeometry x="1040" y="920" width="120" height="60" as="geometry" />
        </mxCell>
        <mxCell id="06KPtgeZnoNECOeJjDOf-29" value="" style="rounded=1;whiteSpace=wrap;html=1;fillColor=#FFE599;glass=0;strokeWidth=3;" vertex="1" parent="1">
          <mxGeometry x="420" y="390" width="120" height="60" as="geometry" />
        </mxCell>
        <mxCell id="06KPtgeZnoNECOeJjDOf-30" value="Gene region&amp;nbsp;" style="text;html=1;align=center;verticalAlign=middle;whiteSpace=wrap;rounded=0;fontSize=20;" vertex="1" parent="1">
          <mxGeometry x="420" y="336" width="140" height="30" as="geometry" />
        </mxCell>
        <mxCell id="06KPtgeZnoNECOeJjDOf-31" value="" style="rounded=0;whiteSpace=wrap;html=1;fontSize=20;fillColor=#cdeb8b;strokeColor=#000000;" vertex="1" parent="1">
          <mxGeometry x="644" y="390" width="120" height="60" as="geometry" />
        </mxCell>
        <mxCell id="06KPtgeZnoNECOeJjDOf-32" value="Cis-regulatory element" style="text;html=1;align=center;verticalAlign=middle;whiteSpace=wrap;rounded=0;fontSize=20;" vertex="1" parent="1">
          <mxGeometry x="590" y="336" width="230" height="30" as="geometry" />
        </mxCell>
        <mxCell id="06KPtgeZnoNECOeJjDOf-33" value="" style="ellipse;whiteSpace=wrap;html=1;fillColor=#eeeeee;strokeColor=#36393d;fillStyle=solid;" vertex="1" parent="1">
          <mxGeometry x="432.5" y="570" width="95" height="70" as="geometry" />
        </mxCell>
        <mxCell id="06KPtgeZnoNECOeJjDOf-34" value="" style="ellipse;whiteSpace=wrap;html=1;fillColor=#A3A3A3;" vertex="1" parent="1">
          <mxGeometry x="437.5" y="600" width="40" height="40" as="geometry" />
        </mxCell>
        <mxCell id="06KPtgeZnoNECOeJjDOf-35" value="" style="ellipse;whiteSpace=wrap;html=1;fillColor=#D6D6D6;" vertex="1" parent="1">
          <mxGeometry x="497.5" y="560" width="30" height="50" as="geometry" />
        </mxCell>
        <mxCell id="06KPtgeZnoNECOeJjDOf-36" value="Transcription factor proteins" style="text;html=1;align=center;verticalAlign=middle;whiteSpace=wrap;rounded=0;fontSize=20;" vertex="1" parent="1">
          <mxGeometry x="365" y="500" width="230" height="30" as="geometry" />
        </mxCell>
        <mxCell id="06KPtgeZnoNECOeJjDOf-37" value="Mediator proteins" style="text;html=1;align=center;verticalAlign=middle;whiteSpace=wrap;rounded=0;fontSize=20;" vertex="1" parent="1">
          <mxGeometry x="605" y="500" width="230" height="30" as="geometry" />
        </mxCell>
        <mxCell id="06KPtgeZnoNECOeJjDOf-38" value="" style="ellipse;whiteSpace=wrap;html=1;fillColor=#BFCFBE;" vertex="1" parent="1">
          <mxGeometry x="1334" y="894" width="50" height="40" as="geometry" />
        </mxCell>
        <mxCell id="06KPtgeZnoNECOeJjDOf-39" value="" style="ellipse;whiteSpace=wrap;html=1;fillColor=#DAEDD9;strokeColor=#36393d;" vertex="1" parent="1">
          <mxGeometry x="1294" y="869" width="60" height="70" as="geometry" />
        </mxCell>
        <mxCell id="06KPtgeZnoNECOeJjDOf-40" value="" style="ellipse;whiteSpace=wrap;html=1;fillColor=#BFCFBE;" vertex="1" parent="1">
          <mxGeometry x="704" y="594" width="50" height="40" as="geometry" />
        </mxCell>
        <mxCell id="06KPtgeZnoNECOeJjDOf-41" value="" style="ellipse;whiteSpace=wrap;html=1;fillColor=#DAEDD9;strokeColor=#36393d;" vertex="1" parent="1">
          <mxGeometry x="664" y="569" width="60" height="70" as="geometry" />
        </mxCell>
        <mxCell id="06KPtgeZnoNECOeJjDOf-46" value="&lt;b&gt;&lt;font style=&quot;font-size: 20px;&quot;&gt;Legend&lt;/font&gt;&lt;/b&gt;" style="text;html=1;align=center;verticalAlign=middle;whiteSpace=wrap;rounded=0;strokeColor=#000000;fillColor=#eeeeee;" vertex="1" parent="1">
          <mxGeometry x="290" y="266" width="635" height="44" as="geometry" />
        </mxCell>
        <mxCell id="06KPtgeZnoNECOeJjDOf-47" value="a)" style="text;html=1;align=center;verticalAlign=middle;whiteSpace=wrap;rounded=0;fontSize=25;" vertex="1" parent="1">
          <mxGeometry x="1060" y="290" width="60" height="30" as="geometry" />
        </mxCell>
        <mxCell id="06KPtgeZnoNECOeJjDOf-48" value="c)" style="text;html=1;align=center;verticalAlign=middle;whiteSpace=wrap;rounded=0;fontSize=25;" vertex="1" parent="1">
          <mxGeometry x="1060" y="720" width="60" height="30" as="geometry" />
        </mxCell>
        <mxCell id="06KPtgeZnoNECOeJjDOf-49" value="b)" style="text;html=1;align=center;verticalAlign=middle;whiteSpace=wrap;rounded=0;fontSize=25;" vertex="1" parent="1">
          <mxGeometry x="330" y="720" width="60" height="30" as="geometry" />
        </mxCell>
      </root>
    </mxGraphModel>
  </diagram>
</mxfile>
